<mxfile host="www.draw.io" modified="2019-10-31T10:30:13.677Z" agent="Mozilla/5.0 (Windows NT 10.0; Win64; x64) AppleWebKit/537.36 (KHTML, like Gecko) Chrome/77.0.3865.120 Safari/537.36" etag="xuVBmBm4BA5nIDHvKP1D" version="12.1.9" type="github" pages="1">
  <diagram id="Ttlfo_AbR6UySrXWPtZ4" name="Page-1">
    <mxGraphModel dx="1422" dy="794" grid="1" gridSize="10" guides="1" tooltips="1" connect="1" arrows="1" fold="1" page="1" pageScale="1" pageWidth="827" pageHeight="1169" math="0" shadow="0">
      <root>
        <mxCell id="0"/>
        <mxCell id="1" parent="0"/>
        <mxCell id="IGPPZvAUWJzWdDN3icNS-1" value="Exercise" style="swimlane;fontStyle=0;childLayout=stackLayout;horizontal=1;startSize=26;fillColor=none;horizontalStack=0;resizeParent=1;resizeParentMax=0;resizeLast=0;collapsible=1;marginBottom=0;" vertex="1" parent="1">
          <mxGeometry x="470" y="220" width="170" height="78" as="geometry"/>
        </mxCell>
        <mxCell id="IGPPZvAUWJzWdDN3icNS-2" value="+ Name: string" style="text;strokeColor=none;fillColor=none;align=left;verticalAlign=top;spacingLeft=4;spacingRight=4;overflow=hidden;rotatable=0;points=[[0,0.5],[1,0.5]];portConstraint=eastwest;" vertex="1" parent="IGPPZvAUWJzWdDN3icNS-1">
          <mxGeometry y="26" width="170" height="26" as="geometry"/>
        </mxCell>
        <mxCell id="IGPPZvAUWJzWdDN3icNS-3" value="+ Attributes: List&lt;Attributes&gt;" style="text;strokeColor=none;fillColor=none;align=left;verticalAlign=top;spacingLeft=4;spacingRight=4;overflow=hidden;rotatable=0;points=[[0,0.5],[1,0.5]];portConstraint=eastwest;" vertex="1" parent="IGPPZvAUWJzWdDN3icNS-1">
          <mxGeometry y="52" width="170" height="26" as="geometry"/>
        </mxCell>
        <mxCell id="IGPPZvAUWJzWdDN3icNS-5" value="TrainingPlan" style="swimlane;fontStyle=0;childLayout=stackLayout;horizontal=1;startSize=26;fillColor=none;horizontalStack=0;resizeParent=1;resizeParentMax=0;resizeLast=0;collapsible=1;marginBottom=0;" vertex="1" parent="1">
          <mxGeometry x="200" y="220" width="170" height="78" as="geometry"/>
        </mxCell>
        <mxCell id="IGPPZvAUWJzWdDN3icNS-6" value="+ Name: string" style="text;strokeColor=none;fillColor=none;align=left;verticalAlign=top;spacingLeft=4;spacingRight=4;overflow=hidden;rotatable=0;points=[[0,0.5],[1,0.5]];portConstraint=eastwest;" vertex="1" parent="IGPPZvAUWJzWdDN3icNS-5">
          <mxGeometry y="26" width="170" height="26" as="geometry"/>
        </mxCell>
        <mxCell id="IGPPZvAUWJzWdDN3icNS-7" value="+ Exercises: List&lt;Exercise&gt;" style="text;strokeColor=none;fillColor=none;align=left;verticalAlign=top;spacingLeft=4;spacingRight=4;overflow=hidden;rotatable=0;points=[[0,0.5],[1,0.5]];portConstraint=eastwest;" vertex="1" parent="IGPPZvAUWJzWdDN3icNS-5">
          <mxGeometry y="52" width="170" height="26" as="geometry"/>
        </mxCell>
        <mxCell id="IGPPZvAUWJzWdDN3icNS-8" value="Attribute" style="swimlane;fontStyle=0;childLayout=stackLayout;horizontal=1;startSize=26;fillColor=none;horizontalStack=0;resizeParent=1;resizeParentMax=0;resizeLast=0;collapsible=1;marginBottom=0;" vertex="1" parent="1">
          <mxGeometry x="470" y="380" width="170" height="78" as="geometry"/>
        </mxCell>
        <mxCell id="IGPPZvAUWJzWdDN3icNS-9" value="+ Key: string" style="text;strokeColor=none;fillColor=none;align=left;verticalAlign=top;spacingLeft=4;spacingRight=4;overflow=hidden;rotatable=0;points=[[0,0.5],[1,0.5]];portConstraint=eastwest;" vertex="1" parent="IGPPZvAUWJzWdDN3icNS-8">
          <mxGeometry y="26" width="170" height="26" as="geometry"/>
        </mxCell>
        <mxCell id="IGPPZvAUWJzWdDN3icNS-10" value="+ Value: string" style="text;strokeColor=none;fillColor=none;align=left;verticalAlign=top;spacingLeft=4;spacingRight=4;overflow=hidden;rotatable=0;points=[[0,0.5],[1,0.5]];portConstraint=eastwest;" vertex="1" parent="IGPPZvAUWJzWdDN3icNS-8">
          <mxGeometry y="52" width="170" height="26" as="geometry"/>
        </mxCell>
        <mxCell id="IGPPZvAUWJzWdDN3icNS-11" value="" style="endArrow=diamondThin;endFill=0;endSize=24;html=1;entryX=1;entryY=0.5;entryDx=0;entryDy=0;exitX=0;exitY=0.5;exitDx=0;exitDy=0;" edge="1" parent="1" source="IGPPZvAUWJzWdDN3icNS-2" target="IGPPZvAUWJzWdDN3icNS-6">
          <mxGeometry width="160" relative="1" as="geometry">
            <mxPoint x="340" y="380" as="sourcePoint"/>
            <mxPoint x="500" y="380" as="targetPoint"/>
          </mxGeometry>
        </mxCell>
        <mxCell id="IGPPZvAUWJzWdDN3icNS-12" value="" style="endArrow=diamondThin;endFill=0;endSize=24;html=1;exitX=0.5;exitY=0;exitDx=0;exitDy=0;" edge="1" parent="1" source="IGPPZvAUWJzWdDN3icNS-8" target="IGPPZvAUWJzWdDN3icNS-1">
          <mxGeometry width="160" relative="1" as="geometry">
            <mxPoint x="470" y="560" as="sourcePoint"/>
            <mxPoint x="630" y="560" as="targetPoint"/>
          </mxGeometry>
        </mxCell>
      </root>
    </mxGraphModel>
  </diagram>
</mxfile>
